<svg fill="#fff" viewBox="0 0 63 62" xmlns="http://www.w3.org/2000/svg" xmlns:xlink="http://www.w3.org/1999/xlink"><clipPath id="a"><path d="m0 0h63v61h-63z"/></clipPath><g clip-path="url(#a)"><path d="m6.17 36.07h4.9v3.67h-4.9zm7.26 0h4.9v3.67h-4.9zm7.26 0h4.9v3.67h-4.9zm-14.52 7.33h4.9v3.67h-4.9zm7.26 0h4.9v3.67h-4.9zm7.26 0h4.9v3.67h-4.9zm-14.52 7.34h4.9v3.66h-4.9zm7.26 0h4.9v3.66h-4.9zm7.26 0h4.9v3.66h-4.9zm-14.52-22h19.42v3.67h-19.42z"/><path d="m62.97 5.1v41.6c0 2.63-2.11 4.77-4.71 4.77h-26.5v4.76c0 2.63-2.11 4.77-4.72 4.77h-22.32c-2.61 0-4.72-2.14-4.72-4.77v-29.14c0-2.63 2.11-4.76 4.72-4.76h13.43v-17.23c0-2.63 2.11-4.77 4.72-4.77h35.39c2.6 0 4.71 2.14 4.71 4.77zm-34.84 21.99c0-.61-.49-1.1-1.09-1.1h-22.32c-.6 0-1.09.49-1.09 1.1v29.14c0 .61.49 1.1 1.09 1.1h22.32c.6 0 1.09-.49 1.09-1.1zm31.21-21.99c0-.61-.48-1.1-1.08-1.1h-35.39c-.6 0-1.09.49-1.09 1.1v17.23h5.26c2.61 0 4.72 2.13 4.72 4.76v20.71h26.5c.6 0 1.08-.49 1.08-1.1zm-34.3 4.58h4.9v3.66h-4.9zm9.44 0h19.42v3.66h-19.42zm-23.5 41.06h4.9v3.66h-4.9zm23.5-33.73h19.42v3.66h-19.42zm0 7.33h19.42v3.67h-19.42zm0 7.33h19.42v3.67h-19.42zm0 7.33h19.42v3.67h-19.42z" fill-rule="evenodd"/></g></svg>