<svg xmlns="http://www.w3.org/2000/svg" fill="#fff" viewBox="0 0 63 62">
  <defs>
    <clipPath id="cp1">
      <path d="M0 0h63v61H0z"/>
    </clipPath>
  </defs>
  <g id="Page 1" clip-path="url(#cp1)">
    <path id="Path 1" d="M6.17 36.07h4.9v3.67h-4.9v-3.67zm7.26 0h4.9v3.67h-4.9v-3.67zm7.26 0h4.9v3.67h-4.9v-3.67zM6.17 43.4h4.9v3.67h-4.9V43.4zm7.26 0h4.9v3.67h-4.9V43.4zm7.26 0h4.9v3.67h-4.9V43.4zM6.17 50.74h4.9v3.66h-4.9v-3.66zm7.26 0h4.9v3.66h-4.9v-3.66zm7.26 0h4.9v3.66h-4.9v-3.66zm-14.52-22h19.42v3.67H6.17v-3.67z" class="shp0"/>
    <path id="Path 2" fill-rule="evenodd" d="M62.97 5.1v41.6c0 2.63-2.11 4.77-4.71 4.77h-26.5v4.76c0 2.63-2.11 4.77-4.72 4.77H4.72C2.11 61 0 58.86 0 56.23V27.09c0-2.63 2.11-4.76 4.72-4.76h13.43V5.1c0-2.63 2.11-4.77 4.72-4.77h35.39c2.6 0 4.71 2.14 4.71 4.77zM28.13 27.09c0-.61-.49-1.1-1.09-1.1H4.72c-.6 0-1.09.49-1.09 1.1v29.14c0 .61.49 1.1 1.09 1.1h22.32c.6 0 1.09-.49 1.09-1.1V27.09zM59.34 5.1c0-.61-.48-1.1-1.08-1.1H22.87c-.6 0-1.09.49-1.09 1.1v17.23h5.26c2.61 0 4.72 2.13 4.72 4.76V47.8h26.5c.6 0 1.08-.49 1.08-1.1V5.1zm-34.3 4.58h4.9v3.66h-4.9V9.68zm9.44 0H53.9v3.66H34.48V9.68zm-23.5 41.06h4.9v3.66h-4.9v-3.66zm23.5-33.73H53.9v3.66H34.48v-3.66zm0 7.33H53.9v3.67H34.48v-3.67zm0 7.33H53.9v3.67H34.48v-3.67zm0 7.33H53.9v3.67H34.48V39z" class="shp0"/>
  </g>
</svg>
