<svg height="13" viewBox="0 0 13 13" width="13" xmlns="http://www.w3.org/2000/svg"><path d="m10.96.36c.36 0 .67.13.93.38.25.26.38.57.38.93v9.63c0 .36-.13.67-.38.93-.26.25-.57.38-.93.38h-9.63c-.36 0-.67-.13-.93-.38-.25-.26-.38-.57-.38-.93v-9.63c0-.36.13-.67.38-.93.26-.25.57-.38.93-.38zm0 10.94v-9.63h-9.63v9.63zm-5.69-1.94c-.07.07-.15.11-.24.11-.1 0-.17-.04-.22-.11l-2.49-2.49c-.07-.07-.11-.16-.11-.25s.04-.16.11-.22l.63-.62c.05-.06.13-.09.22-.09s.17.03.24.09l1.62 1.66 3.88-3.82c.05-.08.13-.11.22-.11s.17.03.24.11l.61.6c.07.07.1.15.1.24s-.03.17-.1.22z" fill="#f6a937" fill-rule="evenodd"/></svg>