<svg xmlns="http://www.w3.org/2000/svg" viewBox="0 0 44 62"><defs><clipPath id="a"><path d="M1 1h42v60H1z"/></clipPath></defs><g clip-path="url(#a)"><path fill="none" stroke="#fff" stroke-width="2" d="M42.01 60.94V22.43c0-11.41-8.96-20.67-20.01-20.67-11.04 0-20 9.26-20 20.67v12.21h4.55v12.21h14.54V60h-7.27m5.46-13.15h5.45m10.76-30.91c.09-.33.15-.67.15-1.03 0-2.07-1.63-3.75-3.63-3.75-.33 0-.63.05-.93.13 0-.04.02-.09.02-.13 0-2.08-1.63-3.76-3.64-3.76-.76 0-1.46.24-2.04.64-.49-1.46-1.83-2.52-3.42-2.52-1.58 0-2.92 1.06-3.42 2.52-.58-.4-1.28-.64-2.03-.64-2.01 0-3.64 1.68-3.64 3.76-2.01 0-3.64 1.68-3.64 3.75 0 .36.07.7.16 1.03-1.65.36-2.88 1.86-2.88 3.67 0 2.08 1.63 3.76 3.63 3.76h24.55c2.01 0 3.64-1.68 3.64-3.76 0-1.81-1.23-3.31-2.88-3.67zm-12.58 3.2l2.73-2.82 2.73 2.82m-2.73-2.82v8.93c0 1.03.81 1.88 1.82 1.88h7.27c1.01 0 1.82.84 1.82 1.87 0 1.04-.81 1.88-1.82 1.88h-10c-1 0-1.82.84-1.82 1.88s.82 1.88 1.82 1.88h7.28l2.72 2.82M11.09 19.61h1.82m1.82 0h1.82m1.82 0h1.82"/></g></svg>