<svg viewBox="0 0 50 72" xmlns="http://www.w3.org/2000/svg"><clipPath id="a"><path d="M0 0h49v71H0z"/></clipPath><g clip-path="url(#a)"><path d="M15.98 22.21c.8.01 1.44.68 1.42 1.5v32.48c.02.82-.62 1.49-1.43 1.5-.8.02-1.45-.64-1.47-1.45V23.71c-.01-.82.63-1.49 1.43-1.5zm-4.35-5.91c.8.01 1.43.68 1.42 1.5v5.87c.01.81-.63 1.48-1.43 1.5-.8.01-1.46-.64-1.47-1.46V17.8c-.01-.82.63-1.49 1.43-1.5zm8.7 0c.8.01 1.44.68 1.43 1.5v5.87c.01.81-.63 1.48-1.43 1.5-.81.01-1.46-.65-1.48-1.46V17.8c-.01-.82.63-1.49 1.44-1.5z"/><g fill-rule="evenodd"><path d="M31.91 4.47c.8 0 1.45.66 1.45 1.47v5.92c0 .49-.24.96-.65 1.23l-4.85 3.3 3.83 6.52c.42.69.21 1.61-.47 2.04-.68.42-1.58.21-2-.49 0-.01-.01-.02-.02-.03l-3.76-6.4-1.43.98c-.24.16-.52.24-.8.24H4.35c-.8 0-1.45-.66-1.45-1.48v-4.43c0-.44.19-.86.52-1.14l8.7-7.39c.27-.22.59-.34.93-.34zm-1.45 2.95H13.58L5.8 14.03v2.26h16.97l7.69-5.22zm6.55-2.95c.8.01 1.44.68 1.43 1.5v5.87c.01.81-.63 1.49-1.43 1.5-.81.01-1.46-.64-1.48-1.46V5.97c-.01-.82.63-1.49 1.43-1.5.02-.01.03-.01.05 0z"/><path d="M21.3 22.21c.49 0 .96.26 1.22.69l9.17 14.78c.14.24.22.51.22.79v31.05c0 .82-.65 1.48-1.45 1.48H1.45C.65 71 0 70.34 0 69.52V38.47c0-.28.08-.55.22-.79L9.39 22.9c.26-.43.72-.69 1.22-.69zm-.8 2.96h-9.09L2.9 38.9v29.14h26.11V38.9zM47.86.03c.8 0 1.45.65 1.46 1.47 0 .51-.25.98-.67 1.25l-4.32 2.93c-.66.47-1.56.3-2.01-.37-.46-.67-.3-1.59.36-2.06.02-.01.03-.02.04-.03L47.04.29c.24-.17.53-.26.82-.26zm-.02 7.39c.8-.01 1.46.64 1.47 1.46s-.63 1.49-1.43 1.5h-4.35c-.8.01-1.46-.64-1.47-1.46-.01-.81.63-1.49 1.43-1.5zm-4.28 4.44c.27.01.54.1.77.26l4.32 2.93c.67.44.87 1.36.44 2.05-.44.68-1.33.88-2.01.44-.01-.01-.03-.02-.04-.03l-4.32-2.93c-.67-.44-.86-1.36-.43-2.04.28-.44.76-.7 1.27-.68z"/></g></g></svg>