<svg xmlns="http://www.w3.org/2000/svg" viewBox="0 0 39 40"><path fill="#fff" d="M39 20.49c0 .83-.67 1.5-1.5 1.5s-1.5-.67-1.5-1.5c0-9.11-7.39-16.5-16.5-16.5-.83 0-1.5-.67-1.5-1.5s.67-1.5 1.5-1.5C30.27.99 39 9.72 39 20.49zm-18.21 8.03c.55-.55.55-.55 1.21-1.2.61-.61 1.09-1.09 1.4-1.39 1.76-1.75 4.18-1.75 5.95 0 1.42 1.41 2.86 2.85 4.32 4.32 1.78 1.8 1.77 4.22-.02 6.03-.34.35-.87.74-1.59 1.2-.16.1-.32.2-.49.31-.46.28-.95.57-1.43.84-.29.17-.52.29-.62.35-1.92 1.1-4.97 1.34-6.93.58-.19-.06-.54-.18-1-.36-.76-.28-1.61-.64-2.51-1.08a36.852 36.852 0 0 1-7.58-4.85c-.97-.81-1.89-1.67-2.77-2.58-.7-.73-1.37-1.5-2-2.3-2.09-2.61-3.73-5.4-4.97-8.2-.44-.98-.8-1.89-1.08-2.71-.17-.51-.28-.88-.3-.96-.76-2.09-.34-5.15.91-6.98.07-.11.2-.31.37-.55a29.174 29.174 0 0 1 1.23-1.71c.32-.4.61-.73.87-.99 1.77-1.74 4.18-1.73 5.95 0 .62.62 3.32 3.31 4.3 4.3 1.81 1.83 1.81 4.23 0 6.05l-1.46 1.46-1.1 1.1-.12.12c.09.2.19.44.32.71.42.92.91 1.85 1.45 2.71.59.93 1.2 1.72 1.81 2.32.57.55 1.25 1.09 2.02 1.61.91.61 1.9 1.16 2.88 1.63.32.15.59.28.82.38.05-.04.1-.1.16-.16zm10.75 3.85c-1.46-1.47-2.89-2.9-4.31-4.31-.59-.59-1.13-.59-1.72 0-.31.3-.79.78-1.39 1.38-.66.66-.66.66-1.21 1.2l-.55.55c-.61.61-1.6.8-2.35.48-.32-.12-.84-.34-1.5-.67a25.52 25.52 0 0 1-3.25-1.84c-.91-.61-1.73-1.26-2.44-1.95-.8-.78-1.55-1.75-2.26-2.87-.61-.98-1.16-2.02-1.64-3.06-.29-.62-.49-1.11-.59-1.38-.32-.78-.08-1.74.5-2.32l1.6-1.6c.71-.71 1.22-1.22 1.45-1.46.65-.65.65-1.16-.01-1.82-.96-.97-3.65-3.66-4.26-4.27-.6-.59-1.15-.59-1.74 0-.16.16-.38.4-.62.71-.1.13-.21.27-.32.42-.26.35-.53.73-.79 1.11-.15.23-.27.4-.35.53-.74 1.07-1.01 3.13-.55 4.42.04.14.13.45.28.88.25.74.58 1.57.98 2.47 1.14 2.58 2.65 5.15 4.57 7.55.58.73 1.19 1.43 1.83 2.1.8.83 1.64 1.61 2.52 2.34a33.82 33.82 0 0 0 6.96 4.46c.83.39 1.59.72 2.27.98.41.15.68.25.92.32 1.22.47 3.32.31 4.48-.36.12-.06.33-.18.61-.34.45-.26.91-.53 1.33-.79.16-.09.3-.18.44-.27.55-.35.95-.64 1.09-.8.64-.63.64-1.17.02-1.79zM33 20.49c0 .83-.67 1.5-1.5 1.5s-1.5-.67-1.5-1.5c0-5.8-4.7-10.5-10.5-10.5-.83 0-1.5-.67-1.5-1.5s.67-1.5 1.5-1.5c7.46 0 13.5 6.04 13.5 13.5zm-11.87 8.4c-.01 0-.01-.01-.02-.01.01 0 .01.01.02.01z"/></svg>