<svg viewBox="0 0 75 72" xmlns="http://www.w3.org/2000/svg"><path d="m31.96 68.18v2.82h-30.96v-2.75c0-2.97 2.45-5.42 5.42-5.42h6.61l15.73-59.9c.45-1.71 1.93-2.9 3.72-2.9 1.26 0 2.37.59 3.19 1.63.81 1.04 1.04 2.31.74 3.49l-15.07 57.68h5.27c2.9 0 5.35 2.45 5.35 5.35zm-27.99-.15h19.08a2.378 2.378 0 0 0 -2.38-2.23h-14.25c-1.26 0-2.3.97-2.45 2.23zm12.17-5.57h2.16l15.29-58.05c.07-.3 0-.59-.22-.89-.23-.3-.52-.45-.89-.45-.45 0-.82.3-.9.67zm12.77 5.57a2.362 2.362 0 0 0 -2.37-2.23h-1.12c.37.67.6 1.41.6 2.23z"/><path d="m74.2 36.03v20.57a3.99 3.99 0 0 1 -4.01 4.01h-1.56l-1.26 10.39h-32.3l-4.23-34.89.52-5.2h7.5c.52-1.71 1.78-2.97 3.49-3.49.07-3.93.82-10.54 4.75-14.55 2.01-2 4.53-3.04 7.42-3.04 6.69 0 12.25 7.5 12.25 16.7h-2.97c0-7.57-4.15-13.73-9.28-13.73-2.07 0-3.86.74-5.27 2.15-2.45 2.45-3.86 6.98-3.93 12.47 1.63.52 2.97 1.78 3.49 3.49h3.93v-2.37h14.03c4.16 0 7.5 3.41 7.43 7.49zm-8.54 24.58h-8.91c-2.22 0-4.01-1.78-4.01-4.01v-22.72h-6.68v-1.48c0-1.27-.96-2.23-2.23-2.23-1.26 0-2.22.96-2.22 2.23v1.48h-7.57l-.23 2.23.45 3.49h15.66v2.97h-15.29l.37 2.97h14.92v2.97h-14.55l1.71 14.1h14.33v2.97h-13.96l.3 2.45h27.02zm5.72-4.01v-20.57c0-2.52-2.01-4.52-4.53-4.52h-11.06v25.09c0 .59.44 1.04 1.04 1.04h1.33v-14.03h2.97v14.03h9.13c.6 0 1.04-.45 1.04-1.04z"/></svg>