<svg xmlns="http://www.w3.org/2000/svg" viewBox="0 0 62 61">
  <defs>
    <clipPath id="cp1">
      <path d="M1 1h60v60H1z"/>
    </clipPath>
  </defs>
  <g id="Page 1" clip-path="url(#cp1)">
    <path id="Path 1" fill="#fff" fill-rule="evenodd" d="M31.79 1.13l3.28 2.21 3.86-.79c.54-.12 1.09.11 1.4.56l2.17 3.32 3.88.75c.54.1.96.53 1.06 1.07l.75 3.88 3.32 2.17c.46.3.68.86.56 1.39l-.79 3.88 2.21 3.28c.31.45.31 1.05 0 1.5l-2.21 3.26.79 3.88c.12.53-.1 1.09-.56 1.4l-1.86 1.21 11.23 17.48c.18.29.25.65.18.99-.15.72-.86 1.18-1.58 1.03l-8.78-1.75-2.34 8.16a1.3 1.3 0 0 1-.61.8c-.64.38-1.46.17-1.83-.47l-9.77-16.27-1.08-.23-3.28 2.21c-.22.16-.48.24-.75.25-.27-.01-.53-.09-.75-.25l-3.27-2.21-1.09.23-9.76 16.27c-.18.3-.47.52-.81.61a1.33 1.33 0 0 1-1.63-.94l-2.34-8.16-8.78 1.75c-.34.07-.7.01-.99-.18-.62-.39-.81-1.22-.41-1.84l11.22-17.46-1.88-1.23c-.45-.31-.68-.87-.56-1.4l.79-3.88-2.21-3.26c-.31-.45-.31-1.05 0-1.5l2.21-3.28-.79-3.88c-.12-.53.11-1.09.56-1.39l3.32-2.17.75-3.88c.11-.54.53-.97 1.07-1.07l3.88-.75 2.17-3.32c.3-.45.86-.68 1.4-.56l3.88.79 3.27-2.21c.18-.12.39-.2.61-.23.31-.03.63.05.89.23zm15.65 37.81c-.1.54-.52.96-1.06 1.06l-3.88.75-2.17 3.32c-.18.26-.43.45-.73.54l7.03 11.7 1.81-6.38c.2-.68.88-1.09 1.57-.94l6.92 1.38-8.99-13.98-.5 2.55zM28.06 5.89c-.3.21-.68.28-1.04.21l-3.53-.75-1.98 3.02c-.2.31-.52.52-.88.58l-3.57.67-.66 3.57c-.07.36-.28.68-.59.88l-3.02 1.98.75 3.52c.08.37 0 .74-.21 1.05l-2.04 2.98 2.04 2.96c.21.31.29.69.21 1.05l-.75 3.52 3.02 1.98c.31.2.52.52.59.88l.66 3.57 3.57.67c.36.06.68.27.88.58l1.98 3.03 3.53-.76c.36-.07.74 0 1.04.21l2.98 2.05 2.99-2.05c.3-.21.68-.28 1.04-.21l3.5.76 1.99-3.03c.2-.31.51-.52.87-.58l3.57-.67.67-3.57c.06-.36.28-.68.58-.88l3.03-1.98-.75-3.52c-.08-.36-.01-.74.2-1.05l2.05-2.96-2.05-2.98c-.21-.31-.28-.68-.2-1.05l.75-3.52-3.03-1.98c-.3-.2-.52-.52-.58-.88L45 9.62l-3.57-.67c-.36-.06-.67-.27-.87-.58l-1.99-3.02-3.5.75c-.36.07-.74 0-1.04-.21l-2.99-2.05-2.98 2.05zM47.07 23.6c0 8.83-7.19 16.02-16.03 16.02-8.83 0-16.02-7.19-16.02-16.02 0-8.83 7.19-16.02 16.02-16.02 8.84 0 16.03 7.19 16.03 16.02zm-29.38 0c0 7.39 5.96 13.35 13.35 13.35S44.4 30.99 44.4 23.6s-5.97-13.35-13.36-13.35-13.35 5.96-13.35 13.35zm24.2-4.88l-1.38 1.46L30.5 30.86l-1.34 1.42-1.46-1.29-6-5.34-1.51-1.32 2.67-3 1.51 1.33 4.54 4.05 8.68-9.26 1.38-1.46 2.92 2.73zM5.15 50.37l6.93-1.38c.69-.15 1.37.26 1.56.94l1.82 6.38 7.01-11.7c-.3-.09-.56-.28-.73-.54l-2.17-3.32-3.88-.75c-.54-.1-.96-.53-1.07-1.06l-.48-2.53-8.99 13.96z"/>
  </g>
</svg>
