<svg viewBox="0 0 162 32" xmlns="http://www.w3.org/2000/svg"><path d="m19.99 2.18v23.56h-4.64v-9.57h-10.53v9.57h-4.64v-23.56h4.64v9.51h10.53v-9.51zm3.52 21.25c0-.64.23-1.18.7-1.63.47-.47 1.01-.7 1.6-.7.56 0 1.07.23 1.54.7.47.45.7.99.7 1.63 0 .66-.23 1.22-.7 1.67-.45.42-.96.64-1.54.64-.59 0-1.13-.22-1.6-.64-.47-.43-.7-.98-.7-1.67zm29.63-22.94h4.48v25.25h-4.48zm16.07 21.82c.89 0 1.82-.31 2.78-.93l1.98 3.33c-.76.43-1.58.77-2.43 1.03-.85.25-1.66.38-2.43.38-1.66 0-3.1-.31-4.32-.93-1.2-.64-2.1-1.52-2.72-2.65-.62-1.16-.93-2.47-.93-3.94 0-1.37.35-2.62 1.06-3.78.72-1.15 1.7-2.05 2.94-2.72 1.24-.68 2.59-1.02 4.07-1.02 2 0 3.64.59 4.92 1.76 1.3 1.17 2.15 2.85 2.53 5.02l-10.24 3.27c.68.79 1.61 1.18 2.79 1.18zm-.36-7.74c-1 0-1.8.34-2.4 1.02-.59.68-.89 1.6-.89 2.75v.29l6.14-2.08c-.45-1.32-1.4-1.98-2.85-1.98zm21.96-2.82h4.16v13.99h-4.48v-1.73c-1.35 1.41-2.91 2.11-4.68 2.11-2.07 0-3.75-.62-5.05-1.86-1.28-1.23-1.92-3.07-1.92-5.5 0-1.54.31-2.88.93-4.03.64-1.18 1.48-2.08 2.52-2.72 1.05-.64 2.17-.96 3.36-.96 1.24 0 2.22.19 2.95.57.72.37 1.36.89 1.92 1.57zm-3.72 10.72c1.56 0 2.69-.7 3.4-2.11v-3.42c-.26-.69-.71-1.23-1.35-1.64-.62-.4-1.35-.6-2.21-.6-.98 0-1.82.36-2.52 1.08-.69.73-1.03 1.65-1.03 2.76 0 .72.17 1.39.51 2.01.34.6.79 1.07 1.35 1.41.57.34 1.19.51 1.85.51zm22.21-11.39c1.32 0 2.42.4 3.3 1.18.89.79 1.35 1.8 1.37 3.01v10.47h-4.48v-8.8c-.06-1.37-.74-2.05-2.04-2.05-1.03 0-1.85.48-2.47 1.44s-.93 2.2-.93 3.71v5.7h-4.48v-13.99h4.07l.32 2.24c.51-.92 1.21-1.63 2.11-2.14.92-.51 1.99-.77 3.23-.77zm9.28.67h4.48v13.99h-4.48zm-.09-4.96c0-.64.24-1.17.73-1.6.51-.45 1.09-.67 1.73-.67.62 0 1.17.22 1.66.67.49.43.74.96.74 1.6s-.25 1.18-.74 1.6c-.49.43-1.04.64-1.66.64-.64 0-1.22-.21-1.73-.64a2.02 2.02 0 0 1 -.73-1.6zm18.91 4.29c1.32 0 2.42.4 3.29 1.18.9.79 1.36 1.8 1.38 3.01v10.47h-4.48v-8.8c-.06-1.37-.75-2.05-2.05-2.05-1.02 0-1.84.48-2.46 1.44s-.93 2.2-.93 3.71v5.7h-4.48v-13.99h4.06l.32 2.24a5.52 5.52 0 0 1 2.12-2.14c.91-.51 1.99-.77 3.23-.77zm20.8.67h4.13v13.99c0 1.32-.39 2.52-1.16 3.61-.74 1.07-1.77 1.91-3.07 2.53-1.28.6-2.68.9-4.19.9-1.15 0-2.17-.14-3.04-.42-.85-.28-1.55-.59-2.08-.93-.51-.34-1.13-.81-1.86-1.41l2.63-3.07c.64.6 1.27 1.07 1.89 1.41.64.34 1.44.51 2.4.51 1.13 0 2.08-.27 2.84-.83.77-.58 1.16-1.37 1.16-2.37v-1.98c-.43.72-1.09 1.31-1.99 1.76-.87.45-1.95.67-3.23.67-1.26 0-2.43-.32-3.52-.96-1.07-.66-1.92-1.56-2.56-2.69-.64-1.15-.96-2.42-.96-3.81 0-1.4.33-2.69.99-3.87.68-1.17 1.57-2.09 2.66-2.75 1.11-.66 2.27-.99 3.49-.99 1.15 0 2.17.17 3.07.51.89.32 1.58.75 2.05 1.28zm-4.23 10.72c1.8 0 3.09-.7 3.88-2.11v-3.42c-.3-.69-.8-1.23-1.51-1.64-.68-.4-1.47-.6-2.37-.6-1.08 0-2 .36-2.75 1.08-.75.73-1.12 1.65-1.12 2.76s.37 2.04 1.12 2.81c.75.75 1.67 1.12 2.75 1.12z" fill="#1175b7" fill-rule="evenodd"/><path d="m49.24 23.78c-.6.5-1.55.99-2.85 1.48s-2.72.73-4.26.73c-2.45 0-4.58-.53-6.4-1.6-1.81-1.06-3.2-2.49-4.16-4.29-.96-1.81-1.44-3.79-1.44-5.95 0-2.37.48-4.48 1.44-6.33.96-1.86 2.31-3.3 4.04-4.32 1.72-1.05 3.72-1.57 5.98-1.57 1.43 0 2.75.19 3.97.57 1.21.39 2.28.87 3.2 1.44l-1.83 4.39c-1.68-1.28-3.41-1.92-5.18-1.92-1.2 0-2.32.33-3.36.99-1.05.66-1.88 1.57-2.5 2.72-.62 1.13-.92 2.39-.92 3.78 0 1.51.28 2.84.86 4 .58 1.13 1.4 2.01 2.46 2.65 1.07.64 2.32.96 3.75.96 1.15 0 2.18-.18 3.1-.54.92-.39 1.64-.83 2.18-1.35z" fill="#f6a937"/></svg>
