<svg xmlns="http://www.w3.org/2000/svg" viewBox="0 0 15 15"><path fill="#f6a937" d="M13.19 11.705c.496.499.493 1.111-.007 1.616-.337.34-.696.665-1.014 1.021-.465.522-1.046.69-1.714.653-.97-.054-1.863-.375-2.725-.793a14.857 14.857 0 0 1-4.919-3.849C1.797 9.148.961 7.834.411 6.355.142 5.64-.048 4.906.01 4.129c.038-.477.216-.886.568-1.22.381-.363.74-.74 1.115-1.108.487-.48 1.098-.48 1.588-.003.303.296.6.6.9.898.29.294.58.581.87.874.512.516.512 1.115.003 1.627-.365.368-.727.736-1.098 1.095-.097.097-.106.175-.057.294.247.586.6 1.108.996 1.595.8.98 1.701 1.85 2.778 2.528.231.143.487.25.727.38.122.07.206.047.306-.055.366-.375.737-.743 1.108-1.112.487-.483 1.1-.483 1.59 0 .595.593 1.192 1.186 1.785 1.783zM9.697 5.287a3.971 3.971 0 0 0-2.273-1.133l.163-1.158A5.118 5.118 0 0 1 10.52 4.46a5.147 5.147 0 0 1 1.439 2.778l-1.152.197a3.971 3.971 0 0 0-1.111-2.148zM15 7.038l-1.152.197a7.358 7.358 0 0 0-2.063-3.98 7.369 7.369 0 0 0-4.208-2.097L7.74 0a8.494 8.494 0 0 1 4.869 2.428A8.557 8.557 0 0 1 15 7.038z"/></svg>