<svg xmlns="http://www.w3.org/2000/svg" viewBox="0 0 11 15">
  <path fill="#f6a937" d="M11 4.613v.707c0 1.72-1.622 3.467-2.63 5.2-.099.173-.316.36-.43.546-.17.28-.367.574-.537.867-.625 1-1.261 2.04-1.9 3.067-1.036-1.574-2.082-3.147-3.09-4.747C1.478 8.76.224 7.173.024 5.68A5.848 5.848 0 0 1 0 5.293v-.64C.355 1.52 3.013 0 5.426 0c1.802 0 4.035.826 5.056 3.133.086.187.201.4.258.6.014.04.26.694.26.88zm-3.455.414c0-1.067-.878-1.92-2.014-1.92-.922 0-1.983.533-1.983 1.706v.413c0 .027-.004.32.053.467.383.92 1.16 1.253 1.869 1.253 1.135 0 2.075-.853 2.075-1.92z"/>
</svg>
