<svg viewBox="0 0 63 62" xmlns="http://www.w3.org/2000/svg" xmlns:xlink="http://www.w3.org/1999/xlink"><clipPath id="a"><path d="m1 0h62v61h-62z"/></clipPath><g clip-path="url(#a)"><path d="m31.84 61c-1.51 0-2.58-1.36-3.59-2.54-.57-.68-1.27-1.6-1.71-1.67-.44-.12-1.51.5-2.33.93-1.39.74-2.84 1.55-4.23.99-1.38-.56-1.83-2.16-2.27-3.65-.25-.8-.56-1.98-.94-2.23-.38-.24-1.58-.12-2.46 0-1.58.19-3.28.37-4.29-.68-1.07-1.05-.88-2.66-.69-4.21.12-.86.25-2.04 0-2.41-.26-.37-1.39-.68-2.28-.93-1.57-.43-3.15-.86-3.72-2.22-.56-1.36.26-2.79 1.01-4.15.44-.74 1.01-1.79.95-2.29-.06-.43-1.01-1.17-1.7-1.67-1.2-.93-2.59-2.04-2.59-3.53 0-1.48 1.39-2.53 2.59-3.52.69-.56 1.64-1.24 1.7-1.67.06-.44-.51-1.49-.95-2.29-.75-1.36-1.57-2.79-1.01-4.15.57-1.36 2.21-1.79 3.72-2.23.82-.24 2.02-.55 2.28-.92.25-.38.12-1.55 0-2.42-.19-1.54-.38-3.21.69-4.2 1.07-1.06 2.71-.87 4.29-.69.88.13 2.08.25 2.46 0 .38-.24.69-1.36.94-2.22.44-1.55.89-3.1 2.27-3.65 1.39-.56 2.84.24 4.23.99.82.31 1.89.92 2.33.8.44-.06 1.2-.99 1.71-1.67 1.01-1.18 2.08-2.54 3.59-2.54 1.52 0 2.59 1.36 3.6 2.54.56.68 1.26 1.61 1.7 1.67.44.12 1.51-.49 2.33-.93 1.39-.74 2.84-1.54 4.23-.99 1.39.56 1.83 2.17 2.27 3.65.25.81.57 1.98.95 2.23.37.25 1.57.12 2.46 0 1.57-.18 3.27-.37 4.28.68 1.08 1.05.89 2.66.7 4.21-.13.87-.25 2.04 0 2.41s1.39.68 2.27.93c1.58.43 3.15.87 3.72 2.23s-.25 2.78-1.01 4.14c-.44.75-1.01 1.8-.95 2.29.07.44 1.01 1.18 1.71 1.67 1.2.93 2.58 2.05 2.58 3.53 0 1.49-1.38 2.54-2.58 3.53-.7.55-1.64 1.23-1.71 1.67-.06.43.51 1.48.95 2.29.76 1.36 1.58 2.78 1.01 4.14s-2.21 1.8-3.72 2.23c-.82.25-2.02.56-2.27.93s-.13 1.54 0 2.41c.19 1.55.38 3.22-.7 4.21-1.07 1.05-2.71.87-4.28.68-.89-.12-2.09-.25-2.46 0-.38.25-.7 1.36-.95 2.23-.44 1.54-.88 3.09-2.27 3.65-1.39.55-2.84-.25-4.23-.99-.75-.44-1.83-.99-2.33-.93-.44.06-1.2.99-1.7 1.67-1.01 1.3-2.08 2.66-3.6 2.66zm-5.36-6.37c.19 0 .38 0 .5.06 1.2.25 2.15 1.36 3.03 2.47.57.68 1.39 1.74 1.83 1.74s1.33-1.06 1.83-1.74c.88-1.11 1.77-2.22 3.03-2.47s2.58.43 3.84 1.17c.7.38 1.9 1.06 2.28.87.37-.18.75-1.42 1-2.29.38-1.36.82-2.72 1.83-3.4 1.08-.68 2.53-.56 3.98-.37.82.06 2.2.24 2.52-.06.32-.31.13-1.67.06-2.48-.19-1.42-.31-2.85.38-3.9.7-1.05 2.15-1.42 3.47-1.79.88-.25 2.15-.62 2.33-.99.13-.37-.5-1.55-.88-2.23-.69-1.24-1.45-2.54-1.2-3.77.25-1.18 1.39-2.11 2.53-2.97.69-.56 1.76-1.37 1.76-1.8s-1.07-1.3-1.76-1.79c-1.14-.87-2.28-1.74-2.53-2.97-.25-1.24.44-2.54 1.2-3.78.38-.68 1.07-1.85.88-2.22-.18-.38-1.45-.75-2.33-.99-1.39-.38-2.77-.81-3.47-1.8-.69-1.05-.57-2.47-.38-3.9.07-.8.26-2.16-.06-2.47s-1.7-.13-2.52-.06c-1.45.18-2.9.31-3.98-.37-1.07-.69-1.45-2.11-1.83-3.41-.25-.86-.63-2.1-1-2.29-.38-.12-1.58.5-2.28.87-1.26.68-2.58 1.42-3.84 1.17-1.2-.24-2.15-1.36-3.03-2.47-.57-.68-1.39-1.73-1.83-1.73s-1.32 1.11-1.83 1.79c-.88 1.12-1.76 2.23-3.03 2.48-1.26.24-2.58-.44-3.84-1.18-.7-.37-1.89-1.05-2.27-.87-.38.19-.76 1.43-1.01 2.29-.38 1.37-.82 2.73-1.83 3.41-1.07.68-2.52.55-3.97.37-.82-.06-2.21-.25-2.53.06-.31.31-.12 1.67-.06 2.48.19 1.42.31 2.84-.38 3.89-.69 1.06-2.14 1.43-3.47 1.8-.88.24-2.14.62-2.33.99-.13.37.5 1.54.88 2.22.7 1.24 1.45 2.54 1.2 3.78-.25 1.17-1.39 2.1-2.52 2.97-.7.56-1.77 1.36-1.77 1.79 0 .44 1.07 1.3 1.77 1.8 1.13.86 2.27 1.73 2.52 2.97s-.44 2.53-1.2 3.77c-.38.68-1.07 1.86-.88 2.23s1.45.74 2.33.99c1.39.37 2.78.8 3.47 1.79.69 1.06.57 2.48.38 3.9-.06.81-.25 2.17.06 2.48.32.31 1.71.12 2.53.06 1.45-.19 2.9-.31 3.97.37s1.45 2.1 1.83 3.4c.25.87.63 2.11 1.01 2.29.38.19 1.57-.49 2.27-.86 1.07-.75 2.21-1.3 3.34-1.3zm.13-14.81c-.32 0-.63-.12-.89-.37l-6.11-5.97c-.51-.49-.51-1.23 0-1.72.5-.49 1.26-.49 1.76 0l5.24 5.11 15.64-15.27c.5-.49 1.26-.49 1.76 0 .51.49.51 1.23 0 1.72l-16.46 16.13c-.25.25-.57.37-.94.37z" fill="#fff" fill-rule="evenodd"/></g></svg>