<svg xmlns="http://www.w3.org/2000/svg" viewBox="0 0 56 60"><path d="M0 26v-4c0-.55.45-1 1-1h4v-8c0-.12.03-.25.07-.36.02-.04.04-.08.07-.11a.53.53 0 0 1 .08-.15L9 7.65V1c0-.55.45-1 1-1h6c.55 0 1 .45 1 1v6.65l3.78 4.73c.03.04.06.09.08.15.03.03.05.07.07.11.04.11.07.24.07.36v8h2v-5c0-.26.1-.52.29-.71l2.71-2.7V10h-2c-.55 0-1-.45-1-1a9.014 9.014 0 0 1 9-9h10c.55 0 1 .45 1 1v4c0 .55-.45 1-1 1h-3.65l-1.24.99 2.79 5.56-1.8.9-2.58-5.18L34 9.48v3.11l4.71 4.7c.19.19.29.45.29.71v3h4c.55 0 1 .45 1 1v4c0 .55-.45 1-1 1h-2.12l-1.95 15.15c.62.11 1.23.32 1.8.6 1.43.71 3.11.71 4.54 0 .98-.49 2.07-.75 3.16-.75H50c3.31 0 6 2.69 6 6v6c0 3.31-2.69 6-6 6h-1.57c-1.09 0-2.18-.26-3.16-.75a5.105 5.105 0 0 0-4.54 0c-.98.49-2.07.75-3.16.75H36c-1.7 0-3.33-.73-4.46-2H8c-.5 0-.93-.37-.99-.87L3.12 27H1c-.55 0-1-.45-1-1zm7-5h12v-7H7v7zm4-14h4V2h-4v5zm-2.92 5h9.84l-2.4-3h-5.04l-2.4 3zM25 21h12v-2.59L32.59 14h-5.18L25 16.41V21zm7-11h-4v2h4v-2zm-6.93-2h7.58L37 4.52V2h-5c-3.48 0-6.43 2.56-6.93 6zM41 2h-2v2h2V2zm1 21H28v2h14v-2zm-30 0v22c0 1.1.9 2 2 2v-9h2v9h2v-9h2v9h2v-9h2v9c1.1 0 2-.9 2-2V35c0-.15.03-.3.1-.44.24-.49.84-.7 1.34-.46l4.06 2.03v.01c.58.28 1.28.05 1.57-.53.17-.3.2-.67.1-1-.1-.31-.32-.57-.62-.71l-6-3c-.34-.17-.55-.52-.55-.9v-7H12zm26.86 4H28v2.38l5.45 2.73c.77.38 1.36 1.06 1.62 1.87.27.82.21 1.71-.18 2.48 0 0-.01.01-.01.02a3.184 3.184 0 0 1-4.27 1.44L28 36.62V45c0 2.21-1.79 4-4 4H14c-2.21 0-4-1.79-4-4V27H5.14l3.74 29h21.47a5.93 5.93 0 0 1-.35-2v-6c0-3.31 2.69-6 6-6h.93l1.93-15zm.97 17.54a5.08 5.08 0 0 0-2.26-.54H36c-2.21 0-4 1.79-4 4s1.79 4 4 4h1.57c.78 0 1.56-.18 2.26-.54 2-.99 4.34-.99 6.34 0 .7.36 1.48.54 2.26.54H50c2.21 0 4-1.79 4-4s-1.79-4-4-4h-1.57c-.78 0-1.56.19-2.26.54-2 .99-4.34.99-6.34 0zM54 54v-1.54c-1.1.99-2.52 1.54-4 1.54h-1.57c-1.09 0-2.18-.26-3.16-.75a5.105 5.105 0 0 0-4.54 0c-.98.49-2.07.75-3.16.75H36c-1.48 0-2.9-.55-4-1.54V54c0 2.21 1.79 4 4 4h1.57c.78 0 1.56-.18 2.26-.54 2-.99 4.34-.99 6.34 0 .7.36 1.48.54 2.26.54H50c2.21 0 4-1.79 4-4zM2 25h8v-2H2v2zm47 21h2v2h-2v-2zm-10 0h2v2h-2v-2zm-4 1h2v2h-2v-2zm10 0h2v2h-2v-2z"/></svg>